<svg width="173" height="173" viewBox="0 0 173 173" fill="none" xmlns="http://www.w3.org/2000/svg">
<mask id="mask0_37_98" style="mask-type:luminance" maskUnits="userSpaceOnUse" x="0" y="0" width="173" height="173">
<path d="M0 0H172.31V172.31H0V0Z" fill="white"/>
</mask>
<g mask="url(#mask0_37_98)">
<path d="M134.489 0H37.8631C16.9628 0 0 16.9628 0 37.8613V134.447C0 155.345 16.9628 172.31 37.8631 172.31H134.447C155.39 172.31 172.31 155.345 172.31 134.447V37.8613C172.31 16.9203 155.347 0 134.447 0H134.489ZM50.8903 140.686C43.2673 140.686 37.0685 134.488 37.0685 126.824C37.0685 119.158 43.2673 113.002 50.8903 113.002C58.5132 113.002 64.7528 119.201 64.7528 126.824C64.7528 134.447 58.554 140.686 50.8903 140.686ZM100.019 102.196H50.1365C41.8839 102.196 35.1831 95.4948 35.1831 87.244C35.1831 78.9914 41.8839 72.2907 50.1365 72.2907H100.019C103.286 72.2907 105.966 69.6107 105.966 66.3437C105.966 63.0767 103.286 60.395 100.019 60.395H50.1365C41.8839 60.395 35.1831 53.6943 35.1831 45.4435C35.1831 37.1927 41.8839 30.4902 50.1365 30.4902H100.019C119.788 30.4902 135.871 46.5733 135.871 66.3437C135.871 86.1124 119.788 102.238 100.019 102.238V102.196Z" fill="#27386D"/>
</g>
</svg>
