<svg width="624" height="173" viewBox="0 0 624 173" fill="none" xmlns="http://www.w3.org/2000/svg">
<mask id="mask0_37_79" style="mask-type:luminance" maskUnits="userSpaceOnUse" x="0" y="0" width="173" height="173">
<path d="M0 0H172.31V172.31H0V0Z" fill="white"/>
</mask>
<g mask="url(#mask0_37_79)">
<path d="M134.489 0H37.8631C16.9628 0 0 16.9628 0 37.8613V134.447C0 155.345 16.9628 172.31 37.8631 172.31H134.447C155.39 172.31 172.31 155.345 172.31 134.447V37.8613C172.31 16.9203 155.347 0 134.447 0H134.489ZM50.8903 140.686C43.2673 140.686 37.0685 134.488 37.0685 126.824C37.0685 119.158 43.2673 113.002 50.8903 113.002C58.5132 113.002 64.7528 119.201 64.7528 126.824C64.7528 134.447 58.554 140.686 50.8903 140.686ZM100.019 102.196H50.1365C41.8839 102.196 35.1831 95.4948 35.1831 87.244C35.1831 78.9914 41.8839 72.2907 50.1365 72.2907H100.019C103.286 72.2907 105.966 69.6107 105.966 66.3437C105.966 63.0767 103.286 60.395 100.019 60.395H50.1365C41.8839 60.395 35.1831 53.6943 35.1831 45.4435C35.1831 37.1927 41.8839 30.4902 50.1365 30.4902H100.019C119.788 30.4902 135.871 46.5733 135.871 66.3437C135.871 86.1124 119.788 102.238 100.019 102.238V102.196Z" fill="#27386D"/>
</g>
<path d="M231.662 123.305C227.732 123.305 224.082 122.725 220.715 121.567C217.347 120.403 214.341 118.779 211.698 116.693V145.674H193.423V58.4973H207.009L209.052 65.7124C211.856 62.9083 215.182 60.725 219.027 59.1642C222.876 57.5999 227.088 56.8159 231.662 56.8159C237.99 56.8159 243.56 58.2401 248.37 61.0868C253.18 63.9299 256.968 67.8371 259.735 72.8068C262.502 77.7782 263.885 83.5106 263.885 90.0037C263.885 96.4934 262.502 102.245 259.735 107.257C256.968 112.266 253.18 116.195 248.37 119.041C243.56 121.883 237.99 123.305 231.662 123.305ZM210.975 90.0037C210.975 95.1313 212.596 99.3383 215.842 102.625C219.091 105.913 223.28 107.555 228.413 107.555C233.624 107.555 237.831 105.913 241.034 102.625C244.241 99.3383 245.844 95.1313 245.844 90.0037C245.844 84.8727 244.241 80.6639 241.034 77.3756C237.831 74.0891 233.624 72.445 228.413 72.445C223.28 72.445 219.091 74.0891 215.842 77.3756C212.596 80.6639 210.975 84.8727 210.975 90.0037Z" fill="black"/>
<path d="M277.711 121.624V32.645H295.986V121.624H277.711Z" fill="black"/>
<path d="M335.306 122.823C327.851 122.823 321.957 121.081 317.626 117.594C313.299 114.109 311.135 109.32 311.135 103.228C311.135 97.3784 313.079 92.7103 316.967 89.2234C320.854 85.7329 326.085 83.9877 332.659 83.9877H355.504V81.1073C355.504 77.9822 354.379 75.4779 352.134 73.5943C349.892 71.7072 346.965 70.7636 343.358 70.7636C340.392 70.7636 337.867 71.4447 335.781 72.8068C333.699 74.1689 332.377 75.9745 331.815 78.2199H314.264C315.384 71.3241 318.488 66.0352 323.579 62.3496C328.672 58.6605 335.228 56.8159 343.244 56.8159C352.698 56.8159 360.09 59.2032 365.422 63.9742C370.751 68.7417 373.417 75.2934 373.417 83.6258V121.624H359.831L357.788 114.288C352.258 119.978 344.764 122.823 335.306 122.823ZM329.176 102.504C329.176 104.672 330.116 106.417 332 107.74C333.881 109.059 336.386 109.719 339.513 109.719C344.082 109.719 347.866 108.398 350.871 105.753C353.879 103.111 355.463 99.6628 355.624 95.4097H338.314C335.584 95.4097 333.378 96.0535 331.695 97.3394C330.015 98.6217 329.176 100.344 329.176 102.504Z" fill="black"/>
<path d="M390.495 121.624V58.4973H404.081L406.004 65.5918C408.572 62.6263 411.679 60.4234 415.326 58.9797C418.972 57.5378 422.878 56.8159 427.046 56.8159C435.304 56.8159 441.776 59.3823 446.463 64.5134C451.155 69.6409 453.501 76.574 453.501 85.3143V121.624H435.226V87.2369C435.226 82.5883 434.123 78.9612 431.92 76.354C429.715 73.7486 426.649 72.445 422.718 72.445C418.55 72.445 415.184 73.8905 412.616 76.7797C410.051 79.6654 408.771 83.5904 408.771 88.5565V121.624H390.495Z" fill="black"/>
<path d="M470.575 121.624V58.4974H488.85V121.624H470.575ZM467.928 38.0583C467.928 34.692 469.03 31.9464 471.234 29.8216C473.437 27.6986 476.264 26.6362 479.712 26.6362C483.24 26.6362 486.085 27.6986 488.247 29.8216C490.412 31.9464 491.496 34.692 491.496 38.0583C491.496 41.4264 490.412 44.1719 488.247 46.2949C486.085 48.4197 483.24 49.4804 479.712 49.4804C476.264 49.4804 473.437 48.4197 471.234 46.2949C469.03 44.1719 467.928 41.4264 467.928 38.0583Z" fill="black"/>
<path d="M513.378 53.4462C513.378 45.9935 515.401 40.2824 519.45 36.3131C523.498 32.3455 529.29 30.3608 536.825 30.3608H550.772V44.7909H540.791C537.508 44.7909 535.104 45.5749 533.583 47.1392C532.059 48.7 531.298 51.1245 531.298 54.411V58.4974H550.169V73.41H531.653V121.624H513.378V73.41H500.757V58.4974H513.378V53.4462Z" fill="black"/>
<path d="M561.356 145.674V129.917H568.571C572.335 129.917 575.038 129.335 576.68 128.172C578.326 127.012 579.67 124.869 580.717 121.744L581.433 119.58L553.063 58.4971H573.261L590.209 97.5733L595.984 81.4618L604.398 58.4971H624L595.863 129.08C594.179 133.407 592.254 136.772 590.089 139.175C587.927 141.582 585.243 143.265 582.036 144.226C578.83 145.191 574.781 145.674 569.891 145.674H561.356Z" fill="black"/>
</svg>
